<svg width="48" height="48" viewBox="0 0 48 48" 
    xmlns="http://www.w3.org/2000/svg" style="
            fill: black;
            border-radius: 6px;
            stroke: white;
            stroke-width: 1px;
          ">
    <path d="M0 9.6C0 6.23968 0 4.55953 0.653961 3.27606C1.2292 2.14708 2.14708 1.2292 3.27606 0.653961C4.55953 0 6.23969 0 9.6 0H38.4C41.7603 0 43.4405 0 44.7239 0.653961C45.8529 1.2292 46.7708 2.14708 47.346 3.27606C48 4.55953 48 6.23969 48 9.6V38.4C48 41.7603 48 43.4405 47.346 44.7239C46.7708 45.8529 45.8529 46.7708 44.7239 47.346C43.4405 48 41.7603 48 38.4 48H9.6C6.23968 48 4.55953 48 3.27606 47.346C2.14708 46.7708 1.2292 45.8529 0.653961 44.7239C0 43.4405 0 41.7603 0 38.4V9.6Z" fill="black" />
    <path d="M16 26C17.1046 26 18 25.1046 18 24C18 22.8954 17.1046 22 16 22C14.8954 22 14 22.8954 14 24C14 25.1046 14.8954 26 16 26Z" fill="white" />
    <path d="M24 26C25.1046 26 26 25.1046 26 24C26 22.8954 25.1046 22 24 22C22.8954 22 22 22.8954 22 24C22 25.1046 22.8954 26 24 26Z" fill="white" />
    <path d="M34 24C34 25.1046 33.1046 26 32 26C30.8954 26 30 25.1046 30 24C30 22.8954 30.8954 22 32 22C33.1046 22 34 22.8954 34 24Z" fill="white" />
</svg>